<svg xmlns="http://www.w3.org/2000/svg" viewBox="0 0 100 100">
  <!-- Augenhügel -->
  <circle cx="33" cy="29" r="16" fill="#10b981"/>
  <circle cx="67" cy="29" r="16" fill="#10b981"/>

  <!-- Kopf/Körper -->
  <ellipse cx="50" cy="64" rx="38" ry="31" fill="#10b981"/>
  <path d="M 17 46 Q 18 28 33 26 Q 50 22 67 26 Q 82 28 83 46 Z" fill="#10b981"/>

  <!-- Augen weiß -->
  <circle cx="33" cy="28" r="11" fill="white"/>
  <circle cx="67" cy="28" r="11" fill="white"/>

  <!-- Pupillen -->
  <circle cx="34" cy="29" r="6" fill="#064e3b"/>
  <circle cx="68" cy="29" r="6" fill="#064e3b"/>

  <!-- Glanzpunkt -->
  <circle cx="37" cy="26" r="2.5" fill="white"/>
  <circle cx="71" cy="26" r="2.5" fill="white"/>

  <!-- Bauch (heller) -->
  <ellipse cx="50" cy="72" rx="25" ry="19" fill="#6ee7b7"/>

  <!-- Nasenlöcher -->
  <ellipse cx="44" cy="56" rx="2.5" ry="2" fill="#059669"/>
  <ellipse cx="56" cy="56" rx="2.5" ry="2" fill="#059669"/>

  <!-- Lächeln -->
  <path d="M 37 68 Q 50 79 63 68" stroke="#059669" stroke-width="2.5" fill="none" stroke-linecap="round"/>
</svg>
